<svg width="33" height="29" viewBox="0 0 33 29" fill="none" xmlns="http://www.w3.org/2000/svg">
<path d="M4.12479 22.1252V22.422C4.12479 22.9732 4.34373 23.5018 4.73346 23.8915C5.12318 24.2812 5.65176 24.5002 6.20291 24.5002H13.9217C14.4728 24.5002 15.0014 24.2812 15.3911 23.8915C15.7808 23.5018 15.9998 22.9732 15.9998 22.422V22.1252C16.0236 21.1006 15.7065 20.0971 15.0983 19.2723C14.49 18.4475 13.625 17.8481 12.6392 17.5681C13.2207 17.0466 13.6303 16.3608 13.8137 15.6015C13.9972 14.8421 13.9459 14.045 13.6667 13.3155C13.3874 12.5859 12.8934 11.9583 12.2498 11.5155C11.6062 11.0727 10.8435 10.8357 10.0623 10.8357C9.28112 10.8357 8.51834 11.0727 7.87478 11.5155C7.23121 11.9583 6.73716 12.5859 6.45792 13.3155C6.17868 14.045 6.1274 14.8421 6.31086 15.6015C6.49432 16.3608 6.90388 17.0466 7.48541 17.5681C6.49955 17.8481 5.63457 18.4475 5.02631 19.2723C4.41805 20.0971 4.10094 21.1006 4.12479 22.1252ZM10.0623 12.0314C10.5907 12.0314 11.1073 12.1881 11.5467 12.4817C11.9861 12.7753 12.3285 13.1926 12.5308 13.6808C12.733 14.169 12.7859 14.7063 12.6828 15.2245C12.5797 15.7428 12.3253 16.2189 11.9516 16.5926C11.5779 16.9663 11.1018 17.2207 10.5835 17.3238C10.0653 17.4269 9.52803 17.374 9.03981 17.1718C8.55158 16.9696 8.13429 16.6271 7.8407 16.1877C7.54712 15.7483 7.39041 15.2317 7.39041 14.7033C7.39041 13.9947 7.67191 13.3151 8.17299 12.814C8.67406 12.3129 9.35366 12.0314 10.0623 12.0314ZM8.87479 18.5627H11.2498C11.7205 18.5521 12.1885 18.6371 12.6255 18.8124C13.0625 18.9877 13.4594 19.2497 13.7923 19.5826C14.1253 19.9155 14.3873 20.3125 14.5626 20.7495C14.7379 21.1865 14.8228 21.6544 14.8123 22.1252V22.422C14.8123 22.6582 14.7185 22.8848 14.5514 23.0518C14.3844 23.2188 14.1579 23.3127 13.9217 23.3127H6.20291C5.9667 23.3127 5.74017 23.2188 5.57315 23.0518C5.40612 22.8848 5.31229 22.6582 5.31229 22.422V22.1252C5.30174 21.6544 5.38668 21.1865 5.56198 20.7495C5.73728 20.3125 5.9993 19.9155 6.33224 19.5826C6.66517 19.2497 7.06211 18.9877 7.4991 18.8124C7.93609 18.6371 8.40407 18.5521 8.87479 18.5627Z" fill="black"/>
<path d="M28.4688 17.9688C28.3113 17.9688 28.1603 18.0313 28.0489 18.1427C27.9376 18.254 27.875 18.405 27.875 18.5625V25.9844C27.875 26.2206 27.7812 26.4471 27.6141 26.6141C27.4471 26.7812 27.2206 26.875 26.9844 26.875H2.64062C2.40442 26.875 2.17788 26.7812 2.01086 26.6141C1.84383 26.4471 1.75 26.2206 1.75 25.9844V8.76562C1.75 8.52942 1.84383 8.30288 2.01086 8.13586C2.17788 7.96883 2.40442 7.875 2.64062 7.875H15.7031C15.8606 7.875 16.0116 7.81244 16.123 7.7011C16.2343 7.58975 16.2969 7.43872 16.2969 7.28125C16.2969 7.12378 16.2343 6.97275 16.123 6.8614C16.0116 6.75006 15.8606 6.6875 15.7031 6.6875H2.64062C2.08947 6.6875 1.56089 6.90644 1.17117 7.29617C0.781445 7.68589 0.5625 8.21447 0.5625 8.76562V25.9844C0.5625 26.5355 0.781445 27.0641 1.17117 27.4538C1.56089 27.8436 2.08947 28.0625 2.64062 28.0625H26.9844C27.5355 28.0625 28.0641 27.8436 28.4538 27.4538C28.8436 27.0641 29.0625 26.5355 29.0625 25.9844V18.5625C29.0625 18.405 28.9999 18.254 28.8886 18.1427C28.7772 18.0313 28.6262 17.9688 28.4688 17.9688ZM27.9492 6.86266L24.2145 10.5973L21.8633 8.24609C21.7519 8.13468 21.6008 8.07209 21.4432 8.07209C21.2856 8.07209 21.1345 8.13468 21.0231 8.24609C20.9117 8.35751 20.8491 8.50861 20.8491 8.66617C20.8491 8.82373 20.9117 8.97484 21.0231 9.08625L23.793 11.8561C23.8482 11.9117 23.9139 11.9557 23.9862 11.9858C24.0586 12.0159 24.1362 12.0313 24.2145 12.0312C24.3717 12.0306 24.5223 11.9676 24.6331 11.8561L28.7894 7.69984C28.8915 7.58672 28.9462 7.43864 28.9422 7.28628C28.9382 7.13392 28.8758 6.98893 28.7678 6.88135C28.6598 6.77376 28.5146 6.71182 28.3622 6.70834C28.2099 6.70486 28.062 6.76011 27.9492 6.86266Z" fill="black"/>
<path d="M32.1143 3.56148C32.0997 3.42436 32.0377 3.29662 31.9391 3.2002C31.8405 3.10377 31.7114 3.04467 31.574 3.03304C30.4415 2.88655 29.3358 2.57864 28.2906 2.11867C27.211 1.66911 26.2052 1.05963 25.307 0.3107C25.1975 0.210564 25.0546 0.155029 24.9062 0.155029C24.7579 0.155029 24.6149 0.210564 24.5054 0.3107C23.6075 1.05996 22.6016 1.66947 21.5218 2.11867C20.4821 2.5767 19.3826 2.88458 18.2562 3.03304C18.1183 3.04401 17.9885 3.10282 17.8893 3.19931C17.7901 3.29579 17.7277 3.42389 17.7129 3.56148C17.6862 3.81382 17.0925 9.74242 18.559 12.6696C20.3136 16.1668 24.4965 18.1291 24.6717 18.2123C24.7498 18.2484 24.8349 18.2672 24.9211 18.2672C25.0072 18.2672 25.0923 18.2484 25.1704 18.2123C25.3456 18.1291 29.5286 16.1668 31.2831 12.6696C32.7348 9.74242 32.1411 3.81382 32.1143 3.56148ZM30.2054 12.1382C28.8725 14.8012 25.7968 16.5438 24.9062 17.0099C24.0156 16.5438 20.94 14.8012 19.607 12.1382C18.5145 9.9532 18.7342 5.58023 18.8411 4.14929C19.9231 3.96076 20.9793 3.6459 21.9879 3.21117C23.0277 2.77146 24.0081 2.20295 24.9062 1.51898C25.8043 2.20295 26.7847 2.77146 27.8245 3.21117C28.8331 3.6459 29.8893 3.96076 30.9714 4.14929C31.0812 5.58023 31.3009 9.9532 30.2054 12.1382ZM18.9687 24.5001H24.9062C25.0637 24.5001 25.2147 24.4375 25.3261 24.3262C25.4374 24.2148 25.5 24.0638 25.5 23.9063C25.5 23.7489 25.4374 23.5978 25.3261 23.4865C25.2147 23.3751 25.0637 23.3126 24.9062 23.3126H18.9687C18.8112 23.3126 18.6602 23.3751 18.5489 23.4865C18.4375 23.5978 18.375 23.7489 18.375 23.9063C18.375 24.0638 18.4375 24.2148 18.5489 24.3262C18.6602 24.4375 18.8112 24.5001 18.9687 24.5001ZM18.9687 20.9376H22.5312C22.6887 20.9376 22.8397 20.875 22.9511 20.7637C23.0624 20.6523 23.125 20.5013 23.125 20.3438C23.125 20.1864 23.0624 20.0353 22.9511 19.924C22.8397 19.8126 22.6887 19.7501 22.5312 19.7501H18.9687C18.8112 19.7501 18.6602 19.8126 18.5489 19.924C18.4375 20.0353 18.375 20.1864 18.375 20.3438C18.375 20.5013 18.4375 20.6523 18.5489 20.7637C18.6602 20.875 18.8112 20.9376 18.9687 20.9376Z" fill="black"/>
</svg>
