<svg width="38" height="30" viewBox="0 0 38 30" fill="none" xmlns="http://www.w3.org/2000/svg">
<path d="M33.9181 21.2553V26.6169C33.9181 27.933 32.8512 28.9998 31.5352 28.9998H2.93958C1.62354 28.9998 0.556641 27.933 0.556641 26.6169V9.93616C0.556641 8.62012 1.62354 7.55322 2.93958 7.55322H31.5352C32.8512 7.55322 33.9181 8.62012 33.9181 9.93616V18.8723" stroke="black" stroke-width="1.11328" stroke-miterlimit="10" stroke-linecap="round" stroke-linejoin="round"/>
<path d="M2.89258 5.17009C3.28343 4.69727 3.8421 4.39404 4.45154 4.32393L32.8551 1.01622C34.1623 0.863997 35.3455 1.80027 35.4978 3.10756L37.4273 19.6763C37.5795 20.9835 36.6433 22.1667 35.336 22.3189L33.9183 22.484M4.13121 21.8508H8.89717M4.13121 24.8296H16.046M11.2801 21.8508H16.046M18.429 21.8508H23.1949M25.5779 21.8508H30.3438M6.51416 16.4892H7.70566M8.89717 18.8721H5.32272C4.6647 18.8721 4.13121 18.3387 4.13121 17.6806V15.2977C4.13121 14.6397 4.66462 14.1062 5.32272 14.1062H8.89717C9.55519 14.1062 10.0887 14.6396 10.0887 15.2977V17.6806C10.0886 18.3387 9.55519 18.8721 8.89717 18.8721Z" stroke="black" stroke-width="1.11328" stroke-miterlimit="10" stroke-linecap="round" stroke-linejoin="round"/>
<path d="M28.5189 17.0851C28.9207 16.2775 29.1523 15.3691 29.1523 14.4042C29.1523 13.4394 28.9207 12.531 28.5189 11.7234M26.3824 16.0093C26.6241 15.525 26.7694 14.9834 26.7694 14.4042C26.7694 13.8251 26.6241 13.2835 26.3824 12.7992M24.2544 14.9377C24.3363 14.777 24.3864 14.5975 24.3864 14.4042C24.3864 14.2109 24.3363 14.0314 24.2544 13.8708" stroke="black" stroke-width="1.11328" stroke-miterlimit="10" stroke-linecap="round" stroke-linejoin="round"/>
</svg>
