<svg width="28" height="36" viewBox="0 0 28 36" fill="none" xmlns="http://www.w3.org/2000/svg">
<path d="M14 35.757C5.41831 35.757 0.494141 31.957 0.494141 25.3229C0.494141 18 6.28914 6.70288 14 6.70288C21.7108 6.70288 27.5058 18 27.5058 25.3229C27.5058 31.957 22.5816 35.757 14 35.757ZM14 8.28621C7.53206 8.28621 2.07747 18.7916 2.07747 25.3229C2.07747 33.0416 9.55081 34.1737 14 34.1737C18.4491 34.1737 25.9225 33.0416 25.9225 25.3229C25.9225 18.7916 20.4679 8.28621 14 8.28621Z" fill="black"/>
<path d="M14.0476 8.28628C12.5377 8.31655 11.0773 7.7472 9.98632 6.70294L6.49507 2.72086C6.40955 2.62252 6.34963 2.50459 6.32063 2.37754C6.29163 2.25048 6.29444 2.11823 6.32882 1.99253C6.36564 1.8624 6.43517 1.74388 6.5308 1.64825C6.62642 1.55263 6.74495 1.48309 6.87507 1.44628C11.5116 -0.172522 16.5598 -0.172522 21.1963 1.44628C21.3182 1.48801 21.4281 1.55886 21.5164 1.65267C21.6046 1.74648 21.6687 1.86043 21.703 1.98461C21.7374 2.11032 21.7402 2.24257 21.7112 2.36962C21.6822 2.49668 21.6223 2.61461 21.5367 2.71294L18.0851 6.67128C17.5967 7.17637 17.0109 7.57712 16.3632 7.84927C15.7155 8.12142 15.0193 8.25932 14.3167 8.25461L14.0476 8.28628ZM8.45841 2.60211L11.1422 5.65003C11.9925 6.39321 13.1028 6.76899 14.2297 6.69503C14.715 6.70274 15.1971 6.61438 15.6482 6.43503C16.0993 6.25569 16.5104 5.9889 16.858 5.65003L19.5417 2.59419C15.9203 1.55296 12.0784 1.55571 8.45841 2.60211ZM14.0001 23.3754C10.968 23.3754 8.59299 21.7921 8.59299 19.71C8.59299 17.6279 10.968 16.0525 14.0001 16.0525C16.8026 16.0525 19.0667 17.4142 19.3755 19.2904C19.3926 19.3944 19.3892 19.5007 19.3652 19.6033C19.3413 19.706 19.2974 19.8029 19.236 19.8885C19.1746 19.9741 19.0969 20.0469 19.0075 20.1025C18.918 20.1581 18.8184 20.1956 18.7144 20.2127C18.6105 20.2299 18.5042 20.2264 18.4015 20.2025C18.2989 20.1785 18.202 20.1346 18.1164 20.0732C18.0308 20.0118 17.958 19.9342 17.9024 19.8447C17.8468 19.7552 17.8093 19.6557 17.7922 19.5517C17.6417 18.6254 16.1376 17.6359 13.9763 17.6359C11.8151 17.6359 10.1526 18.7284 10.1526 19.71C10.1526 20.6917 11.7359 21.7921 13.9763 21.7921C14.1863 21.7921 14.3876 21.8755 14.5361 22.024C14.6846 22.1725 14.768 22.3738 14.768 22.5838C14.768 22.7937 14.6846 22.9951 14.5361 23.1436C14.3876 23.292 14.1863 23.3754 13.9763 23.3754H14.0001Z" fill="black"/>
<path d="M13.9997 29.0834C11.1893 29.0834 8.93308 27.7217 8.62433 25.8455C8.60769 25.7415 8.6117 25.6353 8.63612 25.5329C8.66053 25.4305 8.70488 25.3339 8.76663 25.2486C8.82838 25.1633 8.90633 25.0911 8.99601 25.0359C9.0857 24.9807 9.18536 24.9438 9.28933 24.9272C9.49929 24.8936 9.714 24.9448 9.88622 25.0695C10.0584 25.1942 10.1741 25.3822 10.2077 25.5922C10.3422 26.5422 11.8385 27.5001 13.9997 27.5001C16.161 27.5001 17.8235 26.4076 17.8235 25.4259C17.8235 24.4442 16.2402 23.3438 13.9997 23.3438C13.7898 23.3438 13.5884 23.2604 13.44 23.112C13.2915 22.9635 13.2081 22.7621 13.2081 22.5522C13.2081 22.3422 13.2915 22.1408 13.44 21.9924C13.5884 21.8439 13.7898 21.7605 13.9997 21.7605C17.0318 21.7605 19.4068 23.3438 19.4068 25.4259C19.4068 27.508 17.0318 29.0834 13.9997 29.0834Z" fill="black"/>
<path d="M14.0002 31.3553C13.7902 31.3553 13.5888 31.2719 13.4404 31.1235C13.2919 30.975 13.2085 30.7736 13.2085 30.5637V14.6037C13.2085 14.3937 13.2919 14.1924 13.4404 14.0439C13.5888 13.8954 13.7902 13.812 14.0002 13.812C14.2101 13.812 14.4115 13.8954 14.56 14.0439C14.7084 14.1924 14.7918 14.3937 14.7918 14.6037V30.5637C14.7918 30.7736 14.7084 30.975 14.56 31.1235C14.4115 31.2719 14.2101 31.3553 14.0002 31.3553Z" fill="black"/>
</svg>
