<svg width="87" height="86" viewBox="0 0 87 86" fill="none" xmlns="http://www.w3.org/2000/svg">
<path d="M43.3695 57.3332C42.8979 57.3359 42.4304 57.2455 41.9938 57.0672C41.5572 56.8889 41.1601 56.6261 40.8253 56.294L19.3253 34.794C18.6506 34.1193 18.2715 33.2041 18.2715 32.2499C18.2715 31.2956 18.6506 30.3804 19.3253 29.7057C20.0001 29.0309 20.9152 28.6519 21.8695 28.6519C22.8237 28.6519 23.7389 29.0309 24.4136 29.7057L43.3695 48.6974L62.3253 29.7415C63.0108 29.1545 63.8926 28.8477 64.7944 28.8826C65.6963 28.9174 66.5517 29.2912 67.1899 29.9294C67.8281 30.5676 68.2019 31.4231 68.2368 32.3249C68.2716 33.2267 67.9649 34.1085 67.3778 34.794L45.8778 56.294C45.2104 56.956 44.3095 57.3292 43.3695 57.3332Z" fill="black"/>
</svg>
