<svg width="24" height="27" viewBox="0 0 24 27" fill="none" xmlns="http://www.w3.org/2000/svg">
<path d="M2 9.5L10.1649 15.2154C10.8261 15.6783 11.1567 15.9097 11.5163 15.9993C11.8339 16.0785 12.1661 16.0785 12.4837 15.9993C12.8433 15.9097 13.1739 15.6783 13.8351 15.2154L22 9.5M6.8 22.5H17.2C18.8802 22.5 19.7202 22.5 20.362 22.173C20.9265 21.8854 21.3854 21.4265 21.673 20.862C22 20.2202 22 19.3802 22 17.7V11.3C22 9.61984 22 8.77976 21.673 8.13803C21.3854 7.57354 20.9265 7.1146 20.362 6.82698C19.7202 6.5 18.8802 6.5 17.2 6.5H6.8C5.11984 6.5 4.27976 6.5 3.63803 6.82698C3.07354 7.1146 2.6146 7.57354 2.32698 8.13803C2 8.77976 2 9.61984 2 11.3V17.7C2 19.3802 2 20.2202 2.32698 20.862C2.6146 21.4265 3.07354 21.8854 3.63803 22.173C4.27976 22.5 5.11984 22.5 6.8 22.5Z" stroke="#002E5D" stroke-width="2" stroke-linecap="round" stroke-linejoin="round"/>
</svg>
