<svg width="24" height="24" viewBox="0 0 24 24" fill="none" xmlns="http://www.w3.org/2000/svg">
<g clip-path="url(#clip0_56_498)">
<path fill-rule="evenodd" clip-rule="evenodd" d="M9.75 0.75C6.8505 0.75 4.5 3.1005 4.5 6C4.5 8.8995 6.8505 11.25 9.75 11.25C12.6495 11.25 15 8.8995 15 6C15 3.1005 12.6495 0.75 9.75 0.75ZM6 6C6 3.92887 7.67887 2.25 9.75 2.25C11.8211 2.25 13.5 3.92887 13.5 6C13.5 8.07113 11.8211 9.75 9.75 9.75C7.67887 9.75 6 8.07113 6 6Z" fill="black"/>
<path d="M18.6679 13.3025C18.5953 13.3692 18.5104 13.4209 18.4179 13.4547C18.3254 13.4885 18.2271 13.5037 18.1287 13.4995C18.0303 13.4954 17.9337 13.4718 17.8443 13.4303C17.755 13.3888 17.6748 13.3301 17.6081 13.2575L15.1976 10.6325C15.0705 10.4942 15 10.3131 15 10.1252C15 9.93725 15.0705 9.75618 15.1976 9.61779L17.6081 6.99279C17.6748 6.92023 17.755 6.8615 17.8444 6.81996C17.9337 6.77842 18.0303 6.75488 18.1287 6.75068C18.2272 6.74648 18.3254 6.76172 18.418 6.79551C18.5105 6.82929 18.5955 6.88098 18.6681 6.94761C18.7406 7.01424 18.7994 7.09451 18.8409 7.18383C18.8824 7.27316 18.906 7.36979 18.9102 7.46822C18.9144 7.56664 18.8991 7.66493 18.8654 7.75747C18.8316 7.85 18.7799 7.93498 18.7132 8.00755L17.457 9.37517H22.5C22.6989 9.37517 22.8897 9.45419 23.0303 9.59484C23.171 9.73549 23.25 9.92626 23.25 10.1252C23.25 10.3241 23.171 10.5148 23.0303 10.6555C22.8897 10.7962 22.6989 10.8752 22.5 10.8752H17.457L18.7132 12.2428C18.7799 12.3153 18.8316 12.4003 18.8654 12.4928C18.8992 12.5853 18.9144 12.6836 18.9102 12.782C18.9061 12.8804 18.8825 12.977 18.841 13.0663C18.7995 13.1557 18.7408 13.2359 18.6683 13.3025H18.6679ZM7.32375 12.7502C3.69263 12.7502 0.75 15.6932 0.75 19.3239C0.75 21.4918 2.508 23.2502 4.67625 23.2502H7.875C8.07391 23.2502 8.26468 23.1712 8.40533 23.0305C8.54598 22.8898 8.625 22.6991 8.625 22.5002C8.625 22.3013 8.54598 22.1105 8.40533 21.9698C8.26468 21.8292 8.07391 21.7502 7.875 21.7502H4.67625C4.03277 21.7502 3.41564 21.4945 2.96063 21.0395C2.50562 20.5845 2.25 19.9674 2.25 19.3239C2.25 16.5212 4.52138 14.2502 7.32375 14.2502H12.1763C14.979 14.2502 17.25 16.5215 17.25 19.3239C17.25 19.9674 16.9944 20.5845 16.5394 21.0395C16.0844 21.4945 15.4672 21.7502 14.8237 21.7502H11.625C11.4261 21.7502 11.2353 21.8292 11.0947 21.9698C10.954 22.1105 10.875 22.3013 10.875 22.5002C10.875 22.6991 10.954 22.8898 11.0947 23.0305C11.2353 23.1712 11.4261 23.2502 11.625 23.2502H14.8237C16.9916 23.2502 18.75 21.4922 18.75 19.3239C18.75 15.6928 15.807 12.7502 12.1763 12.7502H7.32375Z" fill="black"/>
</g>
<defs>
<clipPath id="clip0_56_498">
<rect width="24" height="24" fill="white"/>
</clipPath>
</defs>
</svg>
