<svg width="36" height="26" viewBox="0 0 36 26" fill="none" xmlns="http://www.w3.org/2000/svg">
<path d="M12.5672 8.26893C14.393 4.43687 18.3013 1.79053 22.8263 1.79053C29.099 1.79053 34.1838 6.8757 34.1838 13.1481C34.1838 19.421 29.099 24.5059 22.8263 24.5059C17.8011 24.5059 13.5371 21.2415 12.0408 16.7171H15.4771C15.6346 16.7171 15.7856 16.6545 15.897 16.5432C16.0083 16.4318 16.0709 16.2808 16.0709 16.1234C16.0709 15.9659 16.0083 15.8149 15.897 15.7035C15.7856 15.5922 15.6346 15.5296 15.4771 15.5296H6.15527C5.9978 15.5296 5.84678 15.5922 5.73543 15.7035C5.62408 15.8149 5.56152 15.9659 5.56152 16.1234C5.56152 16.2808 5.62408 16.4318 5.73543 16.5432C5.84678 16.6545 5.9978 16.7171 6.15527 16.7171H10.7963C12.3335 21.9065 17.137 25.6934 22.8263 25.6934C29.7548 25.6934 35.3713 20.0765 35.3713 13.1481C35.3713 6.21961 29.7548 0.603027 22.8263 0.603027C17.8263 0.603027 13.5104 3.52843 11.4952 7.75831C11.4319 7.89979 11.4265 8.06038 11.4801 8.2058C11.5337 8.35121 11.642 8.46992 11.7819 8.53658C11.9218 8.60323 12.0822 8.61255 12.2288 8.56255C12.3755 8.51254 12.4971 8.40717 12.5672 8.26893Z" fill="black"/>
<path fill-rule="evenodd" clip-rule="evenodd" d="M18.8295 6.29028C17.2777 6.29028 16.0195 7.54814 16.0195 9.10021C16.0195 10.6523 17.2777 11.9101 18.8295 11.9101C19.5747 11.9101 20.2894 11.6141 20.8164 11.0871C21.3433 10.5602 21.6394 9.84544 21.6394 9.10021C21.6394 8.35497 21.3433 7.64025 20.8164 7.11329C20.2894 6.58633 19.5747 6.29028 18.8295 6.29028ZM17.207 9.10021C17.207 8.88715 17.249 8.67617 17.3305 8.47933C17.4121 8.28249 17.5316 8.10364 17.6822 7.95298C17.8329 7.80232 18.0117 7.68282 18.2086 7.60128C18.4054 7.51975 18.6164 7.47778 18.8295 7.47778C19.0425 7.47778 19.2535 7.51975 19.4503 7.60128C19.6472 7.68282 19.826 7.80232 19.9767 7.95298C20.1273 8.10364 20.2468 8.28249 20.3284 8.47933C20.4099 8.67617 20.4519 8.88715 20.4519 9.10021C20.4519 9.5305 20.2809 9.94317 19.9767 10.2474C19.6724 10.5517 19.2597 10.7226 18.8295 10.7226C18.3992 10.7226 17.9865 10.5517 17.6822 10.2474C17.378 9.94317 17.207 9.5305 17.207 9.10021Z" fill="black"/>
<path d="M27.5686 7.2911C27.6582 7.16255 27.6933 7.00381 27.6663 6.84947C27.6394 6.69513 27.5525 6.55771 27.4246 6.46715C27.2968 6.37659 27.1383 6.34023 26.9838 6.366C26.8292 6.39177 26.6912 6.47758 26.5996 6.60472L17.8201 19.0052C17.7291 19.1337 17.6929 19.2932 17.7194 19.4484C17.7459 19.6037 17.833 19.742 17.9616 19.833C18.0901 19.924 18.2495 19.9603 18.4048 19.9337C18.56 19.9072 18.6984 19.8201 18.7894 19.6916L27.5686 7.2911ZM10.3377 11.9514H8.6167C8.45923 11.9514 8.3082 11.8889 8.19685 11.7775C8.0855 11.6662 8.02295 11.5152 8.02295 11.3577C8.02295 11.2002 8.0855 11.0492 8.19685 10.9378C8.3082 10.8265 8.45923 10.7639 8.6167 10.7639H14.6917C14.8491 10.7639 15.0001 10.8265 15.1115 10.9378C15.2228 11.0492 15.2854 11.2002 15.2854 11.3577C15.2854 11.5152 15.2228 11.6662 15.1115 11.7775C15.0001 11.8889 14.8491 11.9514 14.6917 11.9514H11.5311C11.4895 12.3491 11.4687 12.7486 11.4688 13.1484C11.4688 13.3059 11.4062 13.4569 11.2949 13.5683C11.1835 13.6796 11.0325 13.7422 10.875 13.7422C10.7176 13.7422 10.5665 13.6796 10.4552 13.5683C10.3438 13.4569 10.2813 13.3059 10.2813 13.1484C10.2813 12.745 10.3003 12.346 10.3377 11.952V11.9514Z" fill="black"/>
<path fill-rule="evenodd" clip-rule="evenodd" d="M26.7045 14.6472C25.9592 14.6472 25.2445 14.9433 24.7175 15.4702C24.1906 15.9972 23.8945 16.7119 23.8945 17.4571C23.8945 18.2024 24.1906 18.9171 24.7175 19.4441C25.2445 19.971 25.9592 20.2671 26.7045 20.2671C27.4497 20.2671 28.1644 19.971 28.6914 19.4441C29.2183 18.9171 29.5144 18.2024 29.5144 17.4571C29.5144 16.7119 29.2183 15.9972 28.6914 15.4702C28.1644 14.9433 27.4497 14.6472 26.7045 14.6472ZM25.0823 17.4568C25.0823 17.0265 25.2533 16.6139 25.5575 16.3096C25.8618 16.0054 26.2745 15.8344 26.7047 15.8344C27.135 15.8344 27.5477 16.0054 27.852 16.3096C28.1562 16.6139 28.3272 17.0265 28.3272 17.4568C28.3272 17.8871 28.1562 18.2998 27.852 18.6041C27.5477 18.9083 27.135 19.0793 26.7047 19.0793C26.2745 19.0793 25.8618 18.9083 25.5575 18.6041C25.2533 18.2998 25.0823 17.8871 25.0823 17.4568Z" fill="black"/>
<path d="M4.11295 5.99854C3.95548 5.99854 3.80446 6.06109 3.69311 6.17244C3.58176 6.28379 3.5192 6.43481 3.5192 6.59229C3.5192 6.74976 3.58176 6.90078 3.69311 7.01213C3.80446 7.12348 3.95548 7.18604 4.11295 7.18604H10.2402C10.3976 7.18604 10.5487 7.12348 10.66 7.01213C10.7714 6.90078 10.8339 6.74976 10.8339 6.59229C10.8339 6.43481 10.7714 6.28379 10.66 6.17244C10.5487 6.06109 10.3976 5.99854 10.2402 5.99854H4.11295ZM0.708984 10.764C0.551512 10.764 0.400489 10.8265 0.28914 10.9379C0.17779 11.0492 0.115234 11.2003 0.115234 11.3577C0.115234 11.5152 0.17779 11.6662 0.28914 11.7776C0.400489 11.8889 0.551512 11.9515 0.708984 11.9515H2.69923C2.85671 11.9515 3.00773 11.8889 3.11908 11.7776C3.23043 11.6662 3.29298 11.5152 3.29298 11.3577C3.29298 11.2003 3.23043 11.0492 3.11908 10.9379C3.00773 10.8265 2.85671 10.764 2.69923 10.764H0.708984ZM4.11295 10.764C3.95548 10.764 3.80446 10.8265 3.69311 10.9379C3.58176 11.0492 3.5192 11.2003 3.5192 11.3577C3.5192 11.5152 3.58176 11.6662 3.69311 11.7776C3.80446 11.8889 3.95548 11.9515 4.11295 11.9515H6.94098C7.09846 11.9515 7.24948 11.8889 7.36083 11.7776C7.47218 11.6662 7.53473 11.5152 7.53473 11.3577C7.53473 11.2003 7.47218 11.0492 7.36083 10.9379C7.24948 10.8265 7.09846 10.764 6.94098 10.764H4.11295ZM2.69894 18.8289C2.54147 18.8289 2.39044 18.8914 2.27909 19.0028C2.16774 19.1141 2.10519 19.2652 2.10519 19.4226C2.10519 19.5801 2.16774 19.7311 2.27909 19.8425C2.39044 19.9538 2.54147 20.0164 2.69894 20.0164H5.52697C5.68444 20.0164 5.83546 19.9538 5.94681 19.8425C6.05816 19.7311 6.12072 19.5801 6.12072 19.4226C6.12072 19.2652 6.05816 19.1141 5.94681 19.0028C5.83546 18.8914 5.68444 18.8289 5.52697 18.8289H2.69894ZM7.20253 18.8289C7.04506 18.8289 6.89404 18.8914 6.78269 19.0028C6.67134 19.1141 6.60878 19.2652 6.60878 19.4226C6.60878 19.5801 6.67134 19.7311 6.78269 19.8425C6.89404 19.9538 7.04506 20.0164 7.20253 20.0164H10.9209C11.0784 20.0164 11.2294 19.9538 11.3407 19.8425C11.4521 19.7311 11.5146 19.5801 11.5146 19.4226C11.5146 19.2652 11.4521 19.1141 11.3407 19.0028C11.2294 18.8914 11.0784 18.8289 10.9209 18.8289H7.20253Z" fill="black"/>
</svg>
