<svg width="24" height="27" viewBox="0 0 24 27" fill="none" xmlns="http://www.w3.org/2000/svg">
<path d="M8.38028 11.3534C9.07627 12.803 10.0251 14.1616 11.2266 15.3632C12.4282 16.5648 13.7869 17.5136 15.2365 18.2096C15.3612 18.2694 15.4235 18.2994 15.5024 18.3224C15.7828 18.4041 16.127 18.3454 16.3644 18.1754C16.4313 18.1275 16.4884 18.0704 16.6027 17.9561C16.9523 17.6064 17.1271 17.4316 17.3029 17.3174C17.9658 16.8864 18.8204 16.8864 19.4833 17.3174C19.6591 17.4316 19.8339 17.6064 20.1835 17.9561L20.3783 18.1509C20.9098 18.6824 21.1755 18.9481 21.3198 19.2335C21.6069 19.801 21.6069 20.4713 21.3198 21.0389C21.1755 21.3242 20.9098 21.59 20.3783 22.1214L20.2207 22.279C19.6911 22.8087 19.4263 23.0735 19.0662 23.2757C18.6667 23.5001 18.0462 23.6615 17.588 23.6601C17.1751 23.6589 16.8928 23.5788 16.3284 23.4186C13.295 22.5576 10.4326 20.9332 8.04466 18.5452C5.65668 16.1572 4.03221 13.2948 3.17124 10.2614C3.01103 9.69699 2.93092 9.41477 2.9297 9.00182C2.92833 8.5436 3.08969 7.92311 3.31411 7.5236C3.51636 7.16357 3.78117 6.89876 4.3108 6.36913L4.46843 6.2115C4.99987 5.68006 5.2656 5.41433 5.55098 5.26999C6.11854 4.98292 6.7888 4.98292 7.35636 5.26999C7.64174 5.41433 7.90747 5.68006 8.43891 6.2115L8.63378 6.40637C8.98338 6.75597 9.15819 6.93078 9.27247 7.10655C9.70347 7.76945 9.70347 8.62403 9.27247 9.28692C9.15819 9.46269 8.98338 9.6375 8.63378 9.9871C8.51947 10.1014 8.46231 10.1586 8.41447 10.2254C8.24446 10.4628 8.18576 10.8071 8.26748 11.0874C8.29048 11.1663 8.32041 11.2287 8.38028 11.3534Z" stroke="#002E5D" stroke-width="2" stroke-linecap="round" stroke-linejoin="round"/>
</svg>
