<svg width="63" height="64" viewBox="0 0 63 64" fill="none" xmlns="http://www.w3.org/2000/svg">
<path d="M31.4573 21.616C31.1163 21.614 30.7783 21.6794 30.4626 21.8083C30.1468 21.9373 29.8597 22.1273 29.6176 22.3674L14.0702 37.9148C13.5822 38.4028 13.3081 39.0646 13.3081 39.7546C13.3081 40.4447 13.5822 41.1064 14.0702 41.5944C14.5581 42.0823 15.2199 42.3564 15.9099 42.3564C16.6 42.3564 17.2618 42.0823 17.7497 41.5944L31.4573 27.8608L45.165 41.5685C45.6607 41.993 46.2983 42.2148 46.9505 42.1896C47.6026 42.1644 48.2212 41.8941 48.6827 41.4326C49.1442 40.9711 49.4146 40.3525 49.4398 39.7003C49.4649 39.0482 49.2431 38.4105 48.8186 37.9148L33.2712 22.3674C32.7886 21.8887 32.1371 21.6188 31.4573 21.616Z" fill="black"/>
</svg>
