<svg width="1002" height="409" viewBox="0 0 1002 409" fill="none" xmlns="http://www.w3.org/2000/svg">
<path d="M42.6196 94H31.8296L0.369629 2.99999H16.0996L37.6796 69.17L58.0896 2.99999H69.1396L89.5496 69.17L111.13 2.99999H126.86L95.3996 94H84.6096L63.6796 29.13L42.6196 94ZM189.085 94H136.565V2.99999H189.085V16.39H151.515V42.13H189.085V55.52H151.515V80.61H189.085V94ZM258.758 94H207.278V2.99999H222.228V79.96H258.758V94ZM309.954 96.21C280.314 96.21 262.634 76.32 262.634 48.5C262.634 20.68 280.314 0.789999 309.954 0.789999C335.044 0.789999 351.294 14.96 354.024 34.2H337.644C334.784 21.85 325.164 14.18 310.084 14.18C289.934 14.18 278.364 27.7 278.364 48.5C278.364 69.3 289.934 82.82 310.084 82.82C325.164 82.82 334.784 75.15 337.644 62.8H354.024C351.294 82.04 335.044 96.21 309.954 96.21ZM410.241 96.21C380.731 96.21 363.181 74.5 363.181 48.5C363.181 22.5 380.731 0.789999 410.241 0.789999C439.751 0.789999 457.301 22.5 457.301 48.5C457.301 74.5 439.751 96.21 410.241 96.21ZM410.241 82.82C430.391 82.82 441.701 67.35 441.571 48.5C441.701 29.65 430.391 14.18 410.241 14.18C390.091 14.18 378.781 29.65 378.911 48.5C378.781 67.35 390.091 82.82 410.241 82.82ZM485.894 94H471.594V2.99999H485.894L515.014 72.68L544.004 2.99999H558.304V94H544.004V33.81L520.604 94H509.294L485.894 33.16V94ZM630.374 94H577.854V2.99999H630.374V16.39H592.804V42.13H630.374V55.52H592.804V80.61H630.374V94ZM713.307 94H698.357V17.04H671.967V2.99999H739.827V17.04H713.307V94ZM788.816 96.21C759.306 96.21 741.756 74.5 741.756 48.5C741.756 22.5 759.306 0.789999 788.816 0.789999C818.326 0.789999 835.876 22.5 835.876 48.5C835.876 74.5 818.326 96.21 788.816 96.21ZM788.816 82.82C808.966 82.82 820.276 67.35 820.146 48.5C820.276 29.65 808.966 14.18 788.816 14.18C768.666 14.18 757.356 29.65 757.486 48.5C757.356 67.35 768.666 82.82 788.816 82.82ZM24.4196 250H10.1196V159H24.4196L53.5396 228.68L82.5296 159H96.8296V250H82.5296V189.81L59.1296 250H47.8196L24.4196 189.16V250ZM146.409 198.13L165.779 159H182.159L137.049 250H120.669L138.739 213.47L104.679 159H121.969L146.409 198.13ZM227.33 250H212.38V173.04H185.99V159H253.85V173.04H227.33V250ZM279.23 250H264.28V159H279.23V198.13H316.8V159H331.75V250H316.8V211.52H279.23V250ZM398.693 250H383.743V159H436.263V172.39H398.693V201.25H436.263V214.64H398.693V250ZM467.501 250H452.551V159H467.501V250ZM501.256 250H486.956V159H502.686L538.696 225.04V159H552.996V250H537.266L501.256 183.96V250ZM639.212 250H622.962L619.452 238.43H584.482L580.972 250H564.722L595.402 159H608.532L639.212 250ZM601.902 179.93L588.382 225.04H615.422L601.902 179.93ZM665.152 250H650.852V159H666.582L702.592 225.04V159H716.892V250H701.162L665.152 183.96V250ZM778.538 252.21C748.898 252.21 731.218 232.32 731.218 204.5C731.218 176.68 748.898 156.79 778.538 156.79C803.628 156.79 819.878 170.96 822.608 190.2H806.228C803.368 177.85 793.748 170.18 778.668 170.18C758.518 170.18 746.948 183.7 746.948 204.5C746.948 225.3 758.518 238.82 778.668 238.82C793.748 238.82 803.368 231.15 806.228 218.8H822.608C819.878 238.04 803.628 252.21 778.538 252.21ZM851.915 250H836.965V159H851.915V250ZM938.06 250H921.81L918.3 238.43H883.33L879.82 250H863.57L894.25 159H907.38L938.06 250ZM900.75 179.93L887.23 225.04H914.27L900.75 179.93ZM1001.18 250H949.7V159H964.65V235.96H1001.18V250ZM62.7696 360.37H106.06V373.76H96.0496C91.4996 394.82 75.8996 408.21 51.7196 408.21C22.9896 408.21 4.78963 387.8 4.91963 361.15C5.04963 335.8 21.2996 312.79 53.0196 312.79C75.2496 312.79 90.9796 325.92 92.5396 342.3H76.1596C74.2096 333.2 66.0196 326.18 53.0196 326.18C30.7896 326.18 20.5196 342.3 20.6496 361.15C20.5196 380 32.4796 394.82 51.7196 394.82C66.6696 394.82 76.6796 388.06 80.3196 373.76H62.7696V360.37ZM183.151 346.85C183.151 361.02 175.481 372.2 163.781 376.62L181.721 406H164.691L148.051 378.7H133.361V406H118.411V315H151.951C170.151 315 183.151 328.26 183.151 346.85ZM151.041 328.39H133.361V365.31H151.041C160.921 365.31 168.201 357.51 168.201 346.85C168.201 336.19 160.921 328.39 151.041 328.39ZM239.997 408.21C210.487 408.21 192.937 386.5 192.937 360.5C192.937 334.5 210.487 312.79 239.997 312.79C269.507 312.79 287.057 334.5 287.057 360.5C287.057 386.5 269.507 408.21 239.997 408.21ZM239.997 394.82C260.147 394.82 271.457 379.35 271.327 360.5C271.457 341.65 260.147 326.18 239.997 326.18C219.847 326.18 208.537 341.65 208.667 360.5C208.537 379.35 219.847 394.82 239.997 394.82ZM333.2 408.21C312.79 408.21 299.4 397.03 299.4 375.84V315H314.35V374.93C314.35 388.06 321.76 394.82 333.2 394.82C344.64 394.82 352.05 388.06 352.05 374.93V315H367V375.84C367 397.03 353.61 408.21 333.2 408.21ZM384.504 315H418.044C436.244 315 449.244 328.26 449.244 346.85C449.244 365.44 436.244 378.7 418.044 378.7H399.454V406H384.504V315ZM399.454 365.31H417.134C427.014 365.31 434.294 357.51 434.294 346.85C434.294 336.19 427.014 328.39 417.134 328.39H399.454V365.31Z" fill="url(#paint0_linear_56_507)"/>
<defs>
<linearGradient id="paint0_linear_56_507" x1="-136.63" y1="207" x2="1133.87" y2="207" gradientUnits="userSpaceOnUse">
<stop stop-color="white"/>
<stop offset="0.371961" stop-color="#002E5D"/>
<stop offset="0.669569" stop-color="#002E5D"/>
<stop offset="1" stop-color="white"/>
</linearGradient>
</defs>
</svg>
